Coordinates
version=1
nRows=5
nColumns=63
inDegrees=yes

Units are S.I. units (second, meters, Newtons, ...)
If the header above contains a line with 'inDegrees', this indicates whether rotational values are in degrees (yes) or radians (no).

endheader
time	pelvis_tilt	pelvis_list	pelvis_rotation	pelvis_tx	pelvis_ty	pelvis_tz	hip_flexion_r	hip_adduction_r	hip_rotation_r	knee_angle_r	knee_angle_r_beta	ankle_angle_r	subtalar_angle_r	mtp_angle_r	hip_flexion_l	hip_adduction_l	hip_rotation_l	knee_angle_l	knee_angle_l_beta	ankle_angle_l	subtalar_angle_l	mtp_angle_l	L5_S1_Flex_Ext	L5_S1_Lat_Bending	L5_S1_axial_rotation	L4_L5_Flex_Ext	L4_L5_Lat_Bending	L4_L5_axial_rotation	L3_L4_Flex_Ext	L3_L4_Lat_Bending	L3_L4_axial_rotation	L2_L3_Flex_Ext	L2_L3_Lat_Bending	L2_L3_axial_rotation	L1_L2_Flex_Ext	L1_L2_Lat_Bending	L1_L2_axial_rotation	L1_T12_Flex_Ext	L1_T12_Lat_Bending	L1_T12_axial_rotation	Abs_r3	Abs_r2	Abs_r1	Abs_t1	Abs_t2	neck_flexion	neck_bending	neck_rotation	arm_flex_r	arm_add_r	arm_rot_r	elbow_flex_r	pro_sup_r	wrist_flex_r	wrist_dev_r	arm_flex_l	arm_add_l	arm_rot_l	elbow_flex_l	pro_sup_l	wrist_flex_l	wrist_dev_l
      1.31707317	     -0.72529163	     -1.93741128	    102.05275009	      0.26004681	      0.46838154	      0.87997260	     -3.80312713	      0.04656903	     -6.55377273	      4.35352069	      0.07598327	     33.34135651	      2.77046925	      0.00000000	     -0.80285538	      1.25373511	     13.76583564	      4.47469158	      0.07809810	     30.91037741	     -3.72520086	      0.00000000	     -0.34599172	     -0.04742102	     -1.36435853	     -0.64254122	     -0.06306996	     -1.44963093	     -0.56842979	     -0.11529948	     -1.44963093	     -0.39543393	     -0.11529948	     -1.19381371	     -0.32128791	     -0.09670095	     -1.10854130	     -0.19769967	     -0.07345517	     -1.02326889	     -2.47138423	     -0.53643611	     -7.58815281	      0.00000000	      0.00000000	     18.25614351	      7.03307587	    -22.31741481	     13.27748287	     -8.81742027	    160.93628880	      1.66888135	      2.25612163	     12.20857714	    -15.47477739	      7.78360857	    -13.78975936	    139.37348552	      9.92285895	      3.59099156	     -5.96990609	    -12.63350306
      1.34146341	     -0.71187775	     -1.78177905	    102.52760557	      0.25899441	      0.46931286	      0.87971460	     -4.42656159	      0.31129120	     -2.97109550	      3.45691253	      0.06033451	     31.95167717	     -2.38783471	      0.00000000	     -0.72231711	      1.15582574	     11.88997469	      4.95341588	      0.08645342	     31.59463917	     -0.58330991	      0.00000000	     -0.34795704	     -0.01375532	     -1.43986184	     -0.64619102	     -0.01829458	     -1.52985320	     -0.57165862	     -0.03344469	     -1.52985320	     -0.39768010	     -0.03344469	     -1.25987911	     -0.32311291	     -0.02804985	     -1.16988774	     -0.19882265	     -0.02130699	     -1.07989638	     -2.48542234	     -0.15560295	     -8.00807957	      0.00000000	      0.00000000	     18.07352422	      7.75351461	    -22.13992012	     13.36107922	     -9.03970696	    158.18826843	      1.87931163	      2.10508748	     12.08979896	    -16.30125586	      8.13626627	    -13.68483858	    134.88718794	     10.50550941	      4.82558931	     -6.15342857	    -14.42535229
      1.36585366	     -0.65462431	     -1.64347745	    102.76726418	      0.25798912	      0.47000012	      0.87934256	     -4.78398997	      0.41235720	     -2.98534087	      3.07584989	      0.05368371	     31.76943000	     -2.39914787	      0.00000000	     -0.79660789	      1.09120151	     11.94923194	      5.12641721	      0.08947286	     31.59729902	     -0.34540572	      0.00000000	     -0.35007850	      0.02325069	     -1.50094528	     -0.65013078	      0.03092342	     -1.59475435	     -0.57514396	      0.05653174	     -1.59475435	     -0.40010471	      0.05653174	     -1.31332712	     -0.32508289	      0.04741282	     -1.21951804	     -0.20003485	      0.03601533	     -1.12570896	     -2.50057570	      0.26301651	     -8.34780734	      0.00000000	      0.00000000	     18.23197362	      8.58609598	    -22.07807293	     13.46870208	     -9.24227357	    157.14829896	      1.88739157	      1.75662015	     11.83698307	    -16.91872651	      8.40689294	    -13.12280602	    134.94100049	     10.08307663	      4.75236520	     -6.23060282	    -15.77855288
      1.39024390	     -0.74724086	     -1.66061677	    102.76172295	      0.25721449	      0.47025960	      0.87919398	     -4.83243414	      0.27080849	     -2.90304681	      2.99466214	      0.05226671	     31.75667427	     -2.35680586	      0.00000000	     -0.82017144	      1.23619885	     11.89404611	      5.15782720	      0.09002107	     31.50568147	     -0.32145068	      0.00000000	     -0.33720562	      0.04122150	     -1.54424514	     -0.62622456	      0.05482460	     -1.64076046	     -0.55399512	      0.10022596	     -1.64076046	     -0.38539231	      0.10022596	     -1.35121450	     -0.31312914	      0.08405889	     -1.25469917	     -0.19267929	      0.06385211	     -1.15818385	     -2.40862605	      0.46630589	     -8.58862818	      0.00000000	      0.00000000	     18.19314833	      8.81266536	    -22.13275246	     13.65842417	     -9.32530300	    156.98284951	      1.80219447	      1.70525765	     11.77403945	    -16.93407211	      8.75203629	    -12.63882510	    134.97024816	      9.95689749	      4.79813137	     -6.27770151	    -15.97879394
      1.41463415	     -0.67519339	     -1.62324989	    103.32476527	      0.25646782	      0.47049614	      0.87925845	     -5.25229196	      0.49479099	     -1.61712705	      2.23754054	      0.03905245	     30.75988985	     -4.77237432	      0.00000000	     -0.36512490	      1.03554404	      9.32365770	      6.07703204	      0.10606422	     32.41021221	      3.69457173	      0.00000000	     -0.34461333	      0.05912210	     -1.68914534	     -0.63998141	      0.07863239	     -1.79471693	     -0.56616524	      0.14374947	     -1.79471693	     -0.39385857	      0.14374947	     -1.47800217	     -0.32000794	      0.12056178	     -1.37243059	     -0.19691206	      0.09158013	     -1.26685901	     -2.46153855	      0.66880100	     -9.39451965	      0.00000000	      0.00000000	     18.57203210	     10.14967871	    -22.43164543	     13.94971079	     -9.30882835	    152.84422915	      2.62100341	      2.13605223	     11.62411360	    -16.28689642	      8.64901290	    -11.73118626	    141.52626043	      7.75467510	      3.20081356	     -6.75124203	    -16.60046857
